<?xml version="1.0" encoding="UTF-8"?>
<svg xmlns="http://www.w3.org/2000/svg" viewBox="0 0 1000 550" width="1000" height="550">
  <style>
    text { font-family: Arial, sans-serif; font-size: 14px; }
    .title { font-size: 24px; font-weight: bold; }
    .label { font-size: 11px; }
    .process { font-size: 12px; }
  </style>
  
  <!-- Title -->
  <text x="500" y="40" text-anchor="middle" class="title">LEVEL 1 ADMIN</text>
  
  <!-- ADMIN Entity (Rectangle) -->
  <rect x="30" y="250" width="80" height="50" fill="none" stroke="black" stroke-width="2"/>
  <text x="70" y="280" text-anchor="middle">ADMIN</text>
  
  <!-- Login Process (Circle) -->
  <ellipse cx="200" cy="275" rx="50" ry="30" fill="none" stroke="black" stroke-width="1.5"/>
  <text x="200" y="280" text-anchor="middle" class="process">login</text>
  
  <!-- Arrow from ADMIN to Login -->
  <line x1="110" y1="275" x2="150" y2="275" stroke="black" stroke-width="1.5"/>
  <polygon points="150,275 143,270 143,280" fill="black"/>
  
  <!-- Central Hub (small circle) for branching -->
  <circle cx="320" cy="275" r="8" fill="none" stroke="black" stroke-width="1.5"/>
  
  <!-- Arrow from Login to Hub -->
  <line x1="250" y1="275" x2="312" y2="275" stroke="black" stroke-width="1.5"/>
  <polygon points="312,275 305,270 305,280" fill="black"/>
  
  <!-- Arrow from Hub back to Login (invalid) -->
  <path d="M 312 283 Q 280 320 208 305" fill="none" stroke="black" stroke-width="1"/>
  <polygon points="208,305 218,308 215,298" fill="black"/>
  <text x="240" y="330" text-anchor="middle" class="label">invalid</text>
  
  <!-- User Management Process -->
  <ellipse cx="480" cy="150" rx="80" ry="30" fill="none" stroke="black" stroke-width="1.5"/>
  <text x="480" y="145" text-anchor="middle" class="process">User</text>
  <text x="480" y="160" text-anchor="middle" class="process">Management</text>
  
  <!-- Arrow from Hub to User Management -->
  <line x1="325" y1="268" x2="400" y2="160" stroke="black" stroke-width="1.5"/>
  <polygon points="400,160 391,161 395,170" fill="black"/>
  
  <!-- Resume Management Process -->
  <ellipse cx="480" cy="275" rx="80" ry="30" fill="none" stroke="black" stroke-width="1.5"/>
  <text x="480" y="270" text-anchor="middle" class="process">Resume</text>
  <text x="480" y="285" text-anchor="middle" class="process">Management</text>
  
  <!-- Arrow from Hub to Resume Management -->
  <line x1="328" y1="275" x2="400" y2="275" stroke="black" stroke-width="1.5"/>
  <polygon points="400,275 393,270 393,280" fill="black"/>
  
  <!-- Candidate Management Process -->
  <ellipse cx="480" cy="400" rx="80" ry="30" fill="none" stroke="black" stroke-width="1.5"/>
  <text x="480" y="395" text-anchor="middle" class="process">Candidate</text>
  <text x="480" y="410" text-anchor="middle" class="process">Management</text>
  
  <!-- Arrow from Hub to Candidate Management -->
  <line x1="325" y1="282" x2="400" y2="390" stroke="black" stroke-width="1.5"/>
  <polygon points="400,390 391,388 394,379" fill="black"/>
  
  <!-- Data Store: admins (right-open box) -->
  <line x1="170" y1="180" x2="230" y2="180" stroke="black" stroke-width="1.5"/>
  <line x1="170" y1="180" x2="170" y2="210" stroke="black" stroke-width="1.5"/>
  <line x1="170" y1="210" x2="230" y2="210" stroke="black" stroke-width="1.5"/>
  <text x="200" y="200" text-anchor="middle" class="label">admins</text>
  
  <!-- Arrow from Login to admins data store -->
  <line x1="200" y1="245" x2="200" y2="210" stroke="black" stroke-width="1"/>
  <polygon points="200,210 195,220 205,220" fill="black"/>
  
  <!-- Data Store: users (right-open box) -->
  <line x1="700" y1="135" x2="780" y2="135" stroke="black" stroke-width="1.5"/>
  <line x1="700" y1="135" x2="700" y2="165" stroke="black" stroke-width="1.5"/>
  <line x1="700" y1="165" x2="780" y2="165" stroke="black" stroke-width="1.5"/>
  <text x="740" y="155" text-anchor="middle" class="label">users</text>
  
  <!-- Arrow from User Management to users -->
  <line x1="560" y1="150" x2="700" y2="150" stroke="black" stroke-width="1.5"/>
  <polygon points="700,150 693,145 693,155" fill="black"/>
  
  <!-- Data Store: resume_documents (right-open box) -->
  <line x1="700" y1="235" x2="820" y2="235" stroke="black" stroke-width="1.5"/>
  <line x1="700" y1="235" x2="700" y2="265" stroke="black" stroke-width="1.5"/>
  <line x1="700" y1="265" x2="820" y2="265" stroke="black" stroke-width="1.5"/>
  <text x="760" y="255" text-anchor="middle" class="label">resume_documents</text>
  
  <!-- Data Store: parse_runs (right-open box) -->
  <line x1="700" y1="280" x2="800" y2="280" stroke="black" stroke-width="1.5"/>
  <line x1="700" y1="280" x2="700" y2="310" stroke="black" stroke-width="1.5"/>
  <line x1="700" y1="310" x2="800" y2="310" stroke="black" stroke-width="1.5"/>
  <text x="750" y="300" text-anchor="middle" class="label">parse_runs</text>
  
  <!-- Arrow from Resume Management to resume_documents -->
  <line x1="560" y1="260" x2="700" y2="250" stroke="black" stroke-width="1.5"/>
  <polygon points="700,250 692,247 693,257" fill="black"/>
  
  <!-- Arrow from Resume Management to parse_runs -->
  <line x1="560" y1="290" x2="700" y2="295" stroke="black" stroke-width="1.5"/>
  <polygon points="700,295 692,290 692,300" fill="black"/>
  
  <!-- Data Store: candidates (right-open box) -->
  <line x1="700" y1="385" x2="790" y2="385" stroke="black" stroke-width="1.5"/>
  <line x1="700" y1="385" x2="700" y2="415" stroke="black" stroke-width="1.5"/>
  <line x1="700" y1="415" x2="790" y2="415" stroke="black" stroke-width="1.5"/>
  <text x="745" y="405" text-anchor="middle" class="label">candidates</text>
  
  <!-- Data Store: skills (right-open box) -->
  <line x1="700" y1="430" x2="770" y2="430" stroke="black" stroke-width="1.5"/>
  <line x1="700" y1="430" x2="700" y2="460" stroke="black" stroke-width="1.5"/>
  <line x1="700" y1="460" x2="770" y2="460" stroke="black" stroke-width="1.5"/>
  <text x="735" y="450" text-anchor="middle" class="label">skills</text>
  
  <!-- Arrow from Candidate Management to candidates -->
  <line x1="560" y1="400" x2="700" y2="400" stroke="black" stroke-width="1.5"/>
  <polygon points="700,400 693,395 693,405" fill="black"/>
  
  <!-- Arrow from Candidate Management to skills -->
  <line x1="560" y1="415" x2="700" y2="445" stroke="black" stroke-width="1.5"/>
  <polygon points="700,445 692,440 691,450" fill="black"/>
</svg>
